<svg width="1600" height="1600" viewBox="0 0 1600 1600" fill="none" xmlns="http://www.w3.org/2000/svg">
<path d="M454.947 709.792C402.212 709.792 359.895 666.823 359.895 614.74C359.895 562.657 402.212 519.037 454.947 519.037C507.681 519.037 549.999 562.006 549.999 614.089C549.999 666.172 507.681 709.792 454.947 709.792ZM454.947 571.12C430.858 571.12 411.978 590.651 411.978 614.089C411.978 637.526 431.509 657.058 454.947 657.058C478.384 657.058 497.915 637.526 497.915 614.089C497.915 590.651 479.035 571.12 454.947 571.12Z" fill="#58595B"/>
<path d="M578.646 1061.35C564.323 1061.35 552.604 1049.64 552.604 1035.31V850.417C552.604 812.657 523.307 781.407 486.849 781.407H423.047C386.588 781.407 357.291 812.657 357.291 850.417V1035.31C357.291 1049.64 345.573 1061.35 331.25 1061.35C316.927 1061.35 305.208 1049.64 305.208 1035.31V850.417C305.208 784.011 357.942 729.324 423.047 729.324H486.849C551.953 729.324 604.687 783.36 604.687 850.417V1035.31C604.687 1049.64 592.968 1061.35 578.646 1061.35Z" fill="#58595B"/>
<path d="M394.4 1334.79H354.036C339.713 1334.79 327.994 1323.07 327.994 1308.75C327.994 1294.43 339.713 1282.71 354.036 1282.71H384.635V859.532C384.635 845.209 396.354 833.49 410.676 833.49C424.999 833.49 436.718 845.209 436.718 859.532V1292.47C436.718 1315.91 417.838 1334.79 394.4 1334.79Z" fill="#58595B"/>
<path d="M557.161 1334.79H516.796C493.359 1334.79 474.479 1315.91 474.479 1292.47V859.532C474.479 845.209 486.197 833.49 500.52 833.49C514.843 833.49 526.562 845.209 526.562 859.532V1282.71H557.161C571.484 1282.71 583.202 1294.43 583.202 1308.75C583.202 1323.07 571.484 1334.79 557.161 1334.79Z" fill="#58595B"/>
<path d="M799.998 709.792C747.264 709.792 704.946 666.823 704.946 614.74C704.946 562.657 747.264 519.037 799.998 519.037C852.733 519.037 895.05 562.006 895.05 614.089C895.05 666.172 852.733 709.792 799.998 709.792ZM799.998 571.12C775.91 571.12 757.03 590.651 757.03 614.089C757.03 637.526 776.561 657.058 799.998 657.058C823.436 657.058 842.967 637.526 842.967 614.089C842.967 590.651 824.087 571.12 799.998 571.12Z" fill="#58595B"/>
<path d="M923.697 1061.35C909.374 1061.35 897.656 1049.64 897.656 1035.31V850.417C897.656 812.657 868.359 781.407 831.9 781.407H768.098C731.64 781.407 702.343 812.657 702.343 850.417V1035.31C702.343 1049.64 690.624 1061.35 676.301 1061.35C661.979 1061.35 650.26 1049.64 650.26 1035.31V850.417C650.26 784.011 702.994 729.324 768.098 729.324H831.9C897.005 729.324 949.739 783.36 949.739 850.417V1035.31C949.739 1049.64 938.02 1061.35 923.697 1061.35Z" fill="#58595B"/>
<path d="M739.452 1334.79H699.088C684.765 1334.79 673.046 1323.07 673.046 1308.75C673.046 1294.43 684.765 1282.71 699.088 1282.71H729.687V859.532C729.687 845.209 741.405 833.49 755.728 833.49C770.051 833.49 781.77 845.209 781.77 859.532V1292.47C781.77 1315.91 762.89 1334.79 739.452 1334.79Z" fill="#58595B"/>
<path d="M902.213 1334.79H861.848C838.41 1334.79 819.53 1315.91 819.53 1292.47V859.532C819.53 845.209 831.249 833.49 845.572 833.49C859.895 833.49 871.614 845.209 871.614 859.532V1282.71H902.213C916.535 1282.71 928.254 1294.43 928.254 1308.75C928.254 1323.07 916.535 1334.79 902.213 1334.79Z" fill="#58595B"/>
<path d="M1145.05 709.792C1092.32 709.792 1050 666.823 1050 614.74C1050 562.657 1092.97 519.688 1145.05 519.688C1197.13 519.688 1240.1 562.657 1240.1 614.74C1240.1 666.823 1197.79 709.792 1145.05 709.792ZM1145.05 571.12C1120.96 571.12 1102.08 590.651 1102.08 614.089C1102.08 637.526 1121.61 657.058 1145.05 657.058C1168.49 657.058 1188.02 637.526 1188.02 614.089C1188.02 590.651 1169.14 571.12 1145.05 571.12Z" fill="#58595B"/>
<path d="M1268.75 1061.35C1254.43 1061.35 1242.71 1049.64 1242.71 1035.31V850.417C1242.71 812.656 1213.41 781.406 1176.95 781.406H1113.15C1076.69 781.406 1047.4 812.005 1047.4 850.417V1035.31C1047.4 1049.64 1035.68 1061.35 1021.35 1061.35C1007.03 1061.35 995.312 1049.64 995.312 1035.31V850.417C995.312 784.01 1048.05 729.323 1113.15 729.323H1176.95C1242.06 729.323 1294.79 783.359 1294.79 850.417V1035.31C1294.79 1049.64 1283.07 1061.35 1268.75 1061.35Z" fill="#58595B"/>
<path d="M1084.5 1334.79H1044.14C1029.82 1334.79 1018.1 1323.07 1018.1 1308.75C1018.1 1294.43 1029.82 1282.71 1044.14 1282.71H1074.74V859.531C1074.74 845.208 1086.46 833.49 1100.78 833.49C1115.1 833.49 1126.82 845.208 1126.82 859.531V1292.47C1126.82 1315.91 1107.94 1334.79 1084.5 1334.79Z" fill="#58595B"/>
<path d="M1247.27 1334.79H1206.9C1183.46 1334.79 1164.58 1315.91 1164.58 1292.47V859.531C1164.58 845.208 1176.3 833.49 1190.63 833.49C1204.95 833.49 1216.67 845.208 1216.67 859.531V1282.71H1247.27C1261.59 1282.71 1273.31 1294.43 1273.31 1308.75C1273.31 1323.07 1261.59 1334.79 1247.27 1334.79Z" fill="#58595B"/>
<path d="M852.083 501.458C845.573 501.458 839.063 498.854 833.854 493.646L729.688 389.479C719.271 379.063 719.271 362.787 729.688 352.37C740.104 341.953 756.38 341.953 766.797 352.37L870.964 456.537C881.38 466.953 881.38 483.229 870.964 493.646C865.755 498.854 858.594 501.458 852.083 501.458Z" fill="#58595B"/>
<path d="M747.917 501.458C741.406 501.458 734.896 498.854 729.688 493.646C719.271 483.229 719.271 466.953 729.688 456.537L833.854 352.37C844.271 341.953 860.547 341.953 870.964 352.37C881.38 362.787 881.38 379.063 870.964 389.479L766.797 493.646C760.938 498.854 754.427 501.458 747.917 501.458Z" fill="#58595B"/>
</svg>
