<svg width="1600" height="1600" viewBox="0 0 1600 1600" fill="none" xmlns="http://www.w3.org/2000/svg">
<path d="M458.203 631.667C406.119 631.667 363.802 589.349 363.802 537.266C363.802 485.182 406.119 442.865 458.203 442.865C510.286 442.865 552.604 485.182 552.604 537.266C552.604 589.349 510.286 631.667 458.203 631.667ZM458.203 494.948C434.765 494.948 415.885 513.828 415.885 537.266C415.885 560.703 434.765 579.583 458.203 579.583C481.64 579.583 500.521 560.703 500.521 537.266C500.521 513.828 481.64 494.948 458.203 494.948Z" fill="#58595B"/>
<path d="M585.156 981.276C570.833 981.276 559.114 969.557 559.114 955.234V771.64C559.114 733.88 528.515 703.281 490.755 703.281H425.651C387.89 703.281 357.291 733.88 357.291 771.64V955.234C357.291 969.557 345.573 981.276 331.25 981.276C316.927 981.276 305.208 969.557 305.208 955.234V771.64C305.208 705.234 359.244 651.198 425.651 651.198H491.406C557.161 651.198 611.198 705.234 611.198 771.64V955.234C611.198 969.557 599.479 981.276 585.156 981.276Z" fill="#58595B"/>
<path d="M393.749 1256.67H354.036C339.713 1256.67 327.994 1244.95 327.994 1230.62C327.994 1216.3 339.713 1204.58 354.036 1204.58H383.333V787.917C383.333 773.594 395.051 761.875 409.374 761.875C423.697 761.875 435.416 773.594 435.416 787.917V1215C435.416 1237.79 416.536 1256.67 393.749 1256.67Z" fill="#58595B"/>
<path d="M563.021 1256.67H523.307C499.87 1256.67 481.641 1237.79 481.641 1215V787.917C481.641 773.594 493.359 761.875 507.682 761.875C522.005 761.875 533.724 773.594 533.724 787.917V1204.58H563.672C577.995 1204.58 589.714 1216.3 589.714 1230.62C589.714 1244.95 577.344 1256.67 563.021 1256.67Z" fill="#58595B"/>
<path d="M1141.8 631.667C1089.71 631.667 1047.4 589.349 1047.4 537.266C1047.4 485.182 1089.71 442.865 1141.8 442.865C1193.88 442.865 1236.2 485.182 1236.2 537.266C1236.2 589.349 1193.88 631.667 1141.8 631.667ZM1141.8 494.948C1118.36 494.948 1099.48 513.828 1099.48 537.266C1099.48 560.703 1118.36 579.583 1141.8 579.583C1165.23 579.583 1184.11 560.703 1184.11 537.266C1184.11 513.828 1165.23 494.948 1141.8 494.948Z" fill="#58595B"/>
<path d="M1268.75 981.276C1254.43 981.276 1242.71 969.557 1242.71 955.234V771.64C1242.71 733.88 1212.11 703.281 1174.35 703.281H1108.59C1070.83 703.281 1040.23 733.88 1040.23 771.64V955.234C1040.23 969.557 1028.51 981.276 1014.19 981.276C999.869 981.276 988.15 969.557 988.15 955.234V771.64C988.15 705.234 1042.19 651.198 1108.59 651.198H1174.35C1240.75 651.198 1294.79 705.234 1294.79 771.64V955.234C1294.79 969.557 1283.07 981.276 1268.75 981.276Z" fill="#58595B"/>
<path d="M1077.34 1256.67H1037.63C1023.31 1256.67 1011.59 1244.95 1011.59 1230.62C1011.59 1216.3 1023.31 1204.58 1037.63 1204.58H1067.58V787.917C1067.58 773.594 1079.3 761.875 1093.62 761.875C1107.94 761.875 1119.66 773.594 1119.66 787.917V1215C1119.01 1237.79 1100.13 1256.67 1077.34 1256.67Z" fill="#58595B"/>
<path d="M1246.61 1256.67H1206.9C1183.46 1256.67 1165.23 1237.79 1165.23 1215V787.917C1165.23 773.594 1176.95 761.875 1191.28 761.875C1205.6 761.875 1217.32 773.594 1217.32 787.917V1204.58H1247.27C1261.59 1204.58 1273.31 1216.3 1273.31 1230.62C1273.31 1244.95 1260.94 1256.67 1246.61 1256.67Z" fill="#58595B"/>
<path d="M898.957 861.484H665.884C651.562 861.484 639.843 849.766 639.843 835.443C639.843 821.12 651.562 809.401 665.884 809.401H898.957C913.28 809.401 924.999 821.12 924.999 835.443C924.999 849.766 913.28 861.484 898.957 861.484Z" fill="#58595B"/>
<path d="M719.271 917.474C712.76 917.474 706.25 914.87 701.041 909.661L645.052 853.672C634.635 843.255 634.635 826.979 645.052 816.562L701.041 760.573C711.458 750.156 727.734 750.156 738.151 760.573C748.567 770.989 748.567 787.265 738.151 797.682L701.041 834.791L738.151 871.901C748.567 882.318 748.567 898.594 738.151 909.01C732.291 914.87 725.781 917.474 719.271 917.474Z" fill="#58595B"/>
<path d="M880.728 917.474C874.218 917.474 867.707 914.869 862.499 909.661C852.082 899.244 852.082 882.968 862.499 872.552L899.608 835.442L862.499 798.333C852.082 787.916 852.082 771.64 862.499 761.224C872.916 750.807 889.192 750.807 899.608 761.224L955.598 817.213C966.015 827.63 966.015 843.906 955.598 854.323L899.608 910.312C894.4 914.87 887.89 917.474 880.728 917.474Z" fill="#58595B"/>
<path d="M699.089 585.443L686.068 588.698L682.812 575.677L703.646 569.167H715.365V642.734H699.74V585.443H699.089Z" fill="#58595B"/>
<path d="M727.733 653.151C734.895 652.5 738.801 649.245 738.15 642.734H731.64V625.807H747.916V640.13C747.916 647.292 745.963 651.849 742.707 655.104C739.452 658.359 734.895 659.661 728.384 659.661L727.733 653.151Z" fill="#58595B"/>
<path d="M786.329 644.036C780.47 644.036 775.261 643.385 770.704 641.432C766.147 639.479 762.241 636.875 758.985 633.62L768.751 621.901C771.355 624.505 774.61 626.458 777.215 627.76C779.819 629.062 783.074 629.713 786.329 629.713C790.235 629.713 792.84 629.062 795.444 627.109C798.048 625.156 798.699 622.552 798.699 619.297C798.699 616.042 797.397 613.437 794.793 612.135C792.188 610.833 789.584 609.531 785.678 609.531C783.074 609.531 781.121 609.531 779.168 610.182C777.215 610.833 775.261 611.484 773.308 612.135L764.194 605.625L766.147 569.818H811.069V584.141H779.819L779.168 596.51C780.47 595.859 781.772 595.859 783.725 595.859C785.027 595.859 786.98 595.208 788.933 595.208C792.189 595.208 796.095 595.859 798.699 596.51C801.303 597.161 804.558 599.115 807.162 600.417C809.767 602.37 811.069 604.974 812.371 607.578C813.673 610.182 814.324 614.088 814.324 617.995C814.324 621.901 813.673 625.156 812.371 628.411C811.069 631.667 809.116 634.271 806.511 636.224C803.907 638.177 801.303 640.13 797.397 641.432C794.142 643.385 790.235 644.036 786.329 644.036Z" fill="#58595B"/>
<path d="M827.345 586.745H842.97V594.557C843.621 593.255 844.923 591.953 846.225 591.302C847.527 590 848.178 589.349 850.131 588.698C851.433 588.047 852.735 587.396 854.689 586.745C856.642 586.094 857.944 586.094 859.897 586.094C863.803 586.094 867.058 586.745 869.662 588.698C872.267 590 874.22 592.604 876.173 595.208C878.777 592.604 881.381 590 883.985 588.698C886.59 587.396 890.496 586.745 894.402 586.745C900.261 586.745 904.819 588.698 908.074 591.953C911.329 595.208 913.282 600.417 913.282 607.578V644.036H897.657V612.786C897.657 608.88 897.006 606.276 895.053 604.323C893.1 602.37 891.147 601.719 887.892 601.719C884.636 601.719 882.683 602.37 880.73 604.323C878.777 606.276 878.126 608.88 878.126 612.786V644.036H862.501V612.786C862.501 608.88 861.85 606.276 859.897 604.323C857.944 602.37 855.991 601.719 852.735 601.719C849.48 601.719 847.527 602.37 845.574 604.323C843.621 606.276 842.97 608.88 842.97 612.786V644.036H827.345V586.745V586.745Z" fill="#58595B"/>
</svg>
