<svg width="1600" height="1600" viewBox="0 0 1600 1600" fill="none" xmlns="http://www.w3.org/2000/svg">
<path d="M766.1 677.232C761.402 674.132 756.703 671.652 751.334 670.412L769.456 642.51C782.879 620.809 777.51 592.907 756.032 578.646C750.663 574.926 743.951 572.445 737.91 570.585C740.595 551.984 731.87 532.763 713.077 522.222C694.284 512.302 672.135 514.162 656.027 525.322C651.329 520.982 645.959 517.262 639.247 514.162C631.193 511.062 622.468 509.821 614.414 510.442C611.058 507.341 607.702 504.241 604.346 501.761C582.197 488.12 551.994 493.08 534.544 512.922L443.264 616.468C440.579 612.748 436.552 610.268 433.196 607.168C411.047 592.287 379.502 596.627 361.38 617.088L278.825 711.954C268.758 723.735 262.046 737.376 260.032 752.257L247.951 834.722C247.28 837.202 246.609 839.683 244.595 841.543L213.05 877.505C206.338 885.566 207.68 897.346 215.735 903.547C219.762 906.027 223.789 907.887 228.487 907.887C234.528 907.887 239.897 905.407 243.924 901.067L275.469 865.104C281.51 857.664 285.537 849.603 286.879 840.303L298.961 757.837C300.303 749.777 303.659 742.336 309.028 735.516L391.583 641.27C395.61 636.31 403.664 635.07 408.362 638.17C411.718 640.65 413.061 643.75 413.061 645.61C413.732 648.71 412.389 651.191 410.376 653.671L352.655 720.015C345.943 728.075 347.285 739.856 355.339 746.057C357.353 747.297 360.038 748.537 362.051 749.157L349.97 767.758C341.916 780.779 337.889 795.66 337.889 810.541L339.231 894.246C339.231 896.726 338.56 899.206 337.218 901.067L312.384 940.749C306.343 950.67 304.33 962.45 307.686 973.611C311.042 984.772 318.425 994.072 329.163 1000.27L473.467 1078.4C480.85 1082.12 488.904 1084.6 496.958 1084.6C500.985 1084.6 505.012 1083.98 509.039 1083.36C521.12 1080.26 531.188 1073.44 537.9 1063.52L565.418 1020.11C566.089 1018.87 567.431 1017.63 568.774 1016.39L663.41 922.768C666.094 920.288 668.779 917.188 670.793 914.087L778.852 744.196C792.947 719.395 786.906 691.493 766.1 677.232ZM565.418 536.483C567.431 534.003 570.787 532.143 574.143 532.143C573.472 533.383 572.801 534.003 572.13 535.243L498.971 649.95C495.615 646.85 491.588 644.37 487.561 642.51C484.205 640.65 480.178 639.41 476.151 638.79L482.192 631.969L565.418 536.483ZM744.622 722.495L636.563 892.386C635.891 893.006 635.22 894.246 634.549 894.866L539.913 988.492C536.557 991.592 533.873 995.313 531.188 999.033L503.67 1042.44C502.327 1044.3 500.314 1044.92 499.642 1045.54C498.971 1045.54 496.958 1046.16 494.273 1044.92L350.641 966.791C348.628 965.551 347.956 963.691 347.285 963.07C347.285 962.45 346.614 960.59 347.956 958.11L372.79 918.428C378.159 910.367 380.173 901.687 380.173 892.386L378.831 808.681C378.831 800.62 380.844 792.56 385.542 785.119L451.989 680.332C454.674 676.612 459.372 674.132 463.399 674.132C464.741 674.132 466.755 674.132 468.097 675.372C472.124 677.232 473.467 680.332 474.138 681.572C474.809 684.673 474.809 687.153 472.795 689.633L426.484 762.798C421.115 771.478 423.799 783.259 433.867 788.219C437.223 790.079 440.579 790.699 443.935 790.699C450.647 790.699 457.358 787.599 461.385 781.399L539.242 658.631L606.36 552.604C609.716 547.644 616.427 545.164 621.797 547.024C627.837 549.504 629.851 555.704 627.837 560.665L526.49 721.875C521.12 730.556 523.805 742.336 533.873 747.297C537.228 749.157 540.584 749.777 543.94 749.777C550.652 749.777 557.364 746.677 561.391 740.476L667.437 572.445C667.437 572.445 667.437 572.445 667.437 571.825L676.833 557.565C680.189 552.604 686.901 550.744 692.27 553.844C697.64 556.944 699.653 563.145 696.297 568.105L687.572 582.986L686.901 583.606L580.855 751.017C575.485 759.697 578.17 771.478 588.238 776.439C591.594 778.299 594.95 778.919 598.306 778.919C605.017 778.919 611.729 775.818 615.756 769.618L717.104 609.648C720.46 605.928 727.172 604.068 732.541 607.788C737.239 610.888 737.91 617.708 734.554 622.669L725.158 637.55C724.487 638.17 724.487 638.79 723.816 639.41L617.77 807.441C612.4 816.121 615.085 827.902 625.153 832.862C628.509 834.722 631.864 835.342 635.22 835.342C641.932 835.342 648.644 832.242 652.671 826.042L726.5 709.474C729.856 705.754 736.568 703.894 742.609 707.614C746.636 710.714 747.978 716.915 744.622 722.495Z" fill="#58595B"/>
<path d="M1386.27 876.885L1354.72 840.923C1353.38 839.063 1352.04 836.582 1351.37 834.102L1339.29 751.637C1337.27 736.756 1330.56 723.115 1320.49 711.334L1237.94 617.088C1219.82 596.627 1188.27 592.287 1166.12 607.168C1162.09 609.648 1158.74 612.748 1156.05 616.468L1065.44 512.922C1048.67 493.7 1017.79 488.74 995.642 501.761C991.615 504.241 988.259 507.341 985.575 510.441C976.849 509.821 968.795 511.062 960.741 514.162C954.029 516.642 948.66 520.362 943.962 525.322C938.592 521.602 932.552 519.122 925.84 517.262C912.416 514.162 898.322 516.022 886.912 522.222C874.831 528.423 866.776 538.963 862.749 551.364C860.736 557.565 860.736 564.385 861.407 570.585C855.366 571.825 848.655 574.926 843.285 578.646C821.808 592.907 816.438 620.809 829.862 642.51L847.983 670.412C842.614 671.652 837.916 674.132 833.218 677.232C811.74 691.493 806.37 719.395 819.794 741.096L927.853 911.607C929.867 914.707 932.552 917.808 935.236 920.288L1029.87 1013.91C1031.21 1015.15 1031.89 1016.39 1033.23 1017.63L1060.75 1061.04C1066.79 1070.96 1077.53 1078.4 1089.61 1080.88C1093.63 1082.12 1097.66 1082.12 1101.69 1082.12C1109.74 1082.12 1117.8 1080.26 1125.18 1075.92L1269.48 997.793C1280.22 992.212 1288.28 982.292 1290.96 971.131C1294.32 959.97 1292.3 948.19 1286.26 938.269L1261.43 898.586C1260.09 896.726 1259.41 894.246 1259.41 891.766L1260.76 808.061C1260.76 793.18 1256.73 778.299 1248.68 765.278L1236.59 746.677C1239.28 746.057 1241.29 744.816 1243.31 743.576C1252.03 737.376 1253.37 725.595 1245.99 717.535L1188.27 651.19C1186.26 648.71 1185.59 646.23 1185.59 643.13C1185.59 641.27 1186.93 638.17 1190.28 635.69C1194.98 632.589 1202.36 633.829 1207.06 638.79L1289.62 733.036C1294.99 739.236 1299.01 747.297 1299.69 755.357L1311.77 837.822C1313.11 847.123 1317.14 855.804 1323.18 862.624L1354.72 898.586C1358.75 902.927 1364.79 905.407 1370.16 905.407C1374.86 905.407 1378.88 904.167 1382.91 901.067C1392.31 896.726 1393.65 884.945 1386.27 876.885ZM1033.9 536.483L1117.8 631.969L1123.84 638.79C1119.81 639.41 1116.45 640.65 1112.43 642.51C1108.4 644.37 1104.37 646.85 1101.02 649.95L1027.86 534.623C1027.19 533.383 1026.52 532.143 1025.85 531.523C1028.53 532.143 1031.89 533.383 1033.9 536.483ZM1251.36 958.11C1252.7 959.97 1252.03 961.83 1252.03 963.07C1252.03 963.691 1251.36 965.551 1248.68 966.791L1104.37 1044.92C1102.36 1046.16 1100.35 1045.54 1099 1045.54C1098.33 1045.54 1096.32 1044.92 1094.98 1042.44L1067.46 999.033C1064.77 995.313 1062.09 991.592 1059.4 988.492L964.768 894.866C964.097 894.246 963.426 893.626 962.755 892.386L854.695 722.495C851.339 717.535 852.682 710.714 856.709 707.614C858.722 706.374 861.407 705.754 863.421 705.754C866.776 705.754 870.132 707.614 872.817 710.094L947.318 827.282C951.345 833.482 958.056 836.582 964.768 836.582C968.124 836.582 971.48 835.962 974.836 834.102C984.232 829.142 987.588 817.361 982.219 808.681L876.173 640.65C875.502 640.03 875.502 639.41 874.831 638.79L865.434 623.909C862.078 618.948 863.421 612.128 867.448 609.028C872.817 605.308 879.529 607.168 882.885 610.888L984.232 770.858C988.259 777.059 994.971 780.159 1001.68 780.159C1005.04 780.159 1008.39 779.539 1011.75 777.679C1021.15 772.718 1024.5 760.938 1019.13 752.257L913.088 584.226L912.416 583.606L903.691 569.345C902.349 566.865 901.678 563.765 902.349 561.285C903.02 558.805 905.033 556.324 907.718 555.084C910.403 553.844 913.759 553.224 916.444 553.844C919.128 554.464 921.813 556.324 923.155 558.805L932.552 573.065V573.686L1038.6 741.716C1042.62 747.917 1049.34 751.017 1056.05 751.017C1059.4 751.017 1062.76 750.397 1066.12 748.537C1075.51 743.576 1078.87 731.796 1073.5 723.115L971.48 562.525C969.466 558.185 971.48 551.984 977.521 548.884C982.89 546.404 989.602 548.884 992.958 554.464L1060.08 660.491L1137.93 783.259C1141.96 789.459 1148.67 792.56 1155.38 792.56C1158.74 792.56 1162.09 791.94 1165.45 790.079C1174.85 785.119 1178.2 773.338 1172.83 764.658L1126.52 691.493C1125.18 689.013 1124.51 685.913 1125.18 683.433C1125.85 681.572 1127.19 679.092 1131.22 677.232C1136.59 674.752 1143.97 677.232 1147.33 682.813L1213.77 787.599C1218.47 794.42 1220.49 802.48 1220.49 811.161L1219.14 894.866C1219.14 904.167 1221.83 912.847 1226.53 920.908L1251.36 958.11Z" fill="#58595B"/>
</svg>
