<svg width="1600" height="1600" viewBox="0 0 1600 1600" fill="none" xmlns="http://www.w3.org/2000/svg">
<path d="M804.557 1228.67C778.515 1228.67 751.823 1224.77 726.432 1216.3L545.442 1155.76C467.968 1129.71 416.536 1058.1 416.536 976.719V703.932C416.536 622.552 468.619 550.938 545.442 524.896L727.083 463.698C777.213 446.771 832.552 446.771 882.682 463.698L1063.02 524.245C1139.84 550.287 1191.93 621.901 1191.93 703.281V975.417C1191.93 1056.8 1139.84 1128.41 1063.02 1154.45L882.031 1215C857.291 1224.11 830.599 1228.67 804.557 1228.67ZM805.208 503.412C784.375 503.412 763.541 506.667 744.01 513.177L562.369 574.375C506.38 593.255 468.619 645.339 468.619 703.932V975.417C468.619 1034.01 506.38 1086.09 562.369 1104.97L743.359 1165.52C783.073 1178.54 826.041 1178.54 865.755 1165.52L1046.74 1104.97C1102.73 1086.09 1140.49 1034.01 1140.49 975.417V703.932C1140.49 645.339 1102.73 593.255 1046.74 574.375L866.406 513.828C846.875 506.667 826.041 503.412 805.208 503.412Z" fill="#58595B"/>
<path d="M630.078 675.286C619.01 675.286 609.244 668.125 605.338 657.708C600.781 644.036 607.942 629.063 621.614 624.505L754.427 580.885C786.979 569.818 822.786 570.469 855.338 580.885L982.291 623.203C995.963 627.76 1003.12 642.734 998.567 656.406C994.01 670.078 979.036 677.24 965.364 672.682L839.062 629.714C816.927 622.552 792.838 622.552 770.703 629.714L637.89 673.333C635.286 674.635 632.682 675.286 630.078 675.286Z" fill="#58595B"/>
<path d="M528.515 1036.61C525.26 1036.61 522.005 1035.96 518.75 1034.66L327.994 957.839C266.797 933.099 227.083 875.156 227.083 809.401V711.745C227.083 666.172 249.869 623.854 286.979 598.464C324.739 573.073 372.265 567.865 414.583 584.792L537.63 634.271C550.651 639.479 557.161 655.104 551.953 668.125C546.744 681.797 531.119 687.656 518.099 682.448L395.052 632.969C368.359 622.552 339.713 625.156 316.276 641.432C292.838 657.708 279.166 683.099 279.166 711.745V809.401C279.166 853.672 305.859 893.385 346.875 909.661L537.63 986.484C551.302 991.693 557.161 1007.32 551.953 1020.34C548.047 1030.1 538.281 1036.61 528.515 1036.61Z" fill="#58595B"/>
<path d="M1071.48 1036.61C1061.07 1036.61 1051.3 1030.76 1047.4 1020.34C1042.19 1006.67 1048.7 991.693 1061.72 986.484L1252.47 909.661C1293.49 893.385 1320.18 853.672 1320.18 809.401V711.745C1320.18 683.099 1306.51 657.708 1283.07 641.432C1259.64 625.156 1230.34 622.552 1204.3 632.969L1081.25 682.448C1067.58 687.656 1052.6 681.146 1047.4 668.125C1042.19 655.104 1048.7 639.479 1061.72 634.271L1184.77 584.792C1227.08 567.865 1274.61 573.073 1312.37 598.464C1350.13 623.854 1372.27 666.172 1372.27 711.745V809.401C1372.27 875.156 1332.55 933.75 1272.01 957.839L1081.25 1034.66C1077.99 1035.96 1074.74 1036.61 1071.48 1036.61Z" fill="#58595B"/>
</svg>
